<svg width="200" height="200" xmlns="http://www.w3.org/2000/svg" xmlns:xlink="http://www.w3.org/1999/xlink" preserveAspectRatio="xMidYMid meet">
 <defs>
  <path d="m89.25,128l-21.989998,66.570007l21.989998,0l-15.709999,48.079987l59.700005,-66.569992l-31.420006,0l22,-48.080002l-34.57,0z" id="dfPlfs3AP"/>
  <path d="m101,-1c0,0 0,0 0,0c0,61.200001 0,95.199997 0,102c0,0 0,0 0,0c-61.200001,0 -95.199997,0 -102,0c0,0 0,0 0,0c0,-61.200001 0,-95.199997 0,-102c0,0 0,0 0,0c61.200001,0 95.199997,0 102,0z" id="c2gbtJ8HS"/>
  <path d="m160.25,98c0,0 0,0 0,0c0,36 0,56 0,60c0,0 0,0 0,0c-71.099998,0 -110.599998,0 -118.5,0c0,0 0,0 0,0c0,-36 0,-56 0,-60c0,0 0,0 0,0c71.099998,0 110.600006,0 118.5,0z" id="e13veF9JPt"/>
  <path d="m70.25,128c0,16.570007 -13.209999,30 -29.5,30c-16.290001,0 -29.5,-13.429993 -29.5,-30c0,-16.57 13.209999,-30 29.5,-30c16.290001,0 29.5,13.43 29.5,30z" id="a3YRQ2zH03"/>
  <path d="m188.75,127.75c0,16.710007 -13.820007,30.25 -30.880005,30.25c-17.049988,0 -30.869995,-13.539993 -30.869995,-30.25c0,-16.709999 13.820007,-30.25 30.869995,-30.25c17.059998,0 30.880005,13.540001 30.880005,30.25z" id="asmrDJZWE"/>
  <path d="m117.25,88.5c0,25.68 -18.360001,46.5 -41,46.5c-22.639999,0 -41,-20.82 -41,-46.5c0,-25.68 18.360001,-46.5 41,-46.5c22.639999,0 41,20.82 41,46.5z" id="a1JDZkJoGY"/>
  <path d="m160.25,97c0,16.019997 -13.429993,29 -30,29c-16.57,0 -30,-12.980003 -30,-29c0,-16.019997 13.43,-29 30,-29c16.570007,0 30,12.980003 30,29z" id="dB8VFA7T"/>
 </defs>
 <g>
  <title>background</title>
  <rect x="-1" y="-1" width="202" height="202" id="canvas_background" fill="none"/>
 </g>
 <g>
  <title>Layer 1</title>
  <g id="svg_5">
   <use xlink:href="#c2gbtJ8HS" fill="#000000" fill-opacity="0" id="svg_6" y="-34.924776" x="-13.088115" transform="matrix(0.884058, 0, 0, 0.884058, 22.5797, 23.0317)"/>
   <g id="svg_7">
    <use xlink:href="#c2gbtJ8HS" fill-opacity="0" stroke="#000000" stroke-opacity="0" id="svg_8" y="-34.924776" x="-13.088115" transform="matrix(0.884058, 0, 0, 0.884058, 22.5797, 23.0317)"/>
   </g>
  </g>
  <g id="svg_9">
   <use xlink:href="#e13veF9JPt" fill="#8f8f8f" id="svg_10" y="-34.924776" x="-13.088115" transform="matrix(0.884058, 0, 0, 0.884058, 22.5797, 23.0317)"/>
   <g id="svg_11">
    <use xlink:href="#e13veF9JPt" fill-opacity="0" stroke="#000000" stroke-width="1.5" stroke-opacity="0" id="svg_12" y="-34.924776" x="-13.088115" transform="matrix(0.884058, 0, 0, 0.884058, 22.5797, 23.0317)"/>
   </g>
  </g>
  <g id="svg_13">
   <use xlink:href="#a3YRQ2zH03" fill="#8f8f8f" id="svg_14" y="-34.924776" x="-13.088115" transform="matrix(0.884058, 0, 0, 0.884058, 22.5797, 23.0317)"/>
   <g id="svg_15">
    <use xlink:href="#a3YRQ2zH03" fill-opacity="0" stroke="#000000" stroke-width="1.5" stroke-opacity="0" id="svg_16" y="-34.924776" x="-13.088115" transform="matrix(0.884058, 0, 0, 0.884058, 22.5797, 23.0317)"/>
   </g>
  </g>
  <g id="svg_17">
   <use xlink:href="#asmrDJZWE" fill="#8f8f8f" id="svg_18" y="-34.924776" x="-13.088115" transform="matrix(0.884058, 0, 0, 0.884058, 22.5797, 23.0317)"/>
   <g id="svg_19">
    <use xlink:href="#asmrDJZWE" fill-opacity="0" stroke="#000000" stroke-width="1.5" stroke-opacity="0" id="svg_20" y="-34.924776" x="-13.088115" transform="matrix(0.884058, 0, 0, 0.884058, 22.5797, 23.0317)"/>
   </g>
  </g>
  <g id="svg_21">
   <use xlink:href="#a1JDZkJoGY" fill="#8f8f8f" id="svg_22" y="-34.924776" x="-13.088115" transform="matrix(0.884058, 0, 0, 0.884058, 22.5797, 23.0317)"/>
  </g>
  <g id="svg_23">
   <use xlink:href="#dB8VFA7T" fill="#8f8f8f" id="svg_24" y="-34.924776" x="-13.088115" transform="matrix(0.884058, 0, 0, 0.884058, 22.5797, 23.0317)"/>
  </g>
  <ellipse ry="10.5" rx="10.5" id="svg_2" cy="151" cx="61" fill-opacity="null" stroke-width="4" stroke="#76ace2" fill="none"/>
  <ellipse ry="5" rx="5" id="svg_25" cy="148.5" cx="111.5" fill-opacity="null" stroke-opacity="null" stroke-width="4" stroke="#76ace2" fill="none"/>
  <ellipse ry="9" rx="9" id="svg_26" cy="155.499999" cx="134.500001" fill-opacity="null" stroke-opacity="null" stroke-width="4" stroke="#76ace2" fill="none"/>
  <ellipse ry="9" rx="9" id="svg_27" cy="167.5" cx="89.5" fill-opacity="null" stroke-opacity="null" stroke-width="4" stroke="#76ace2" fill="none"/>
 </g>
</svg>